<?xml version="1.0" encoding="UTF-8" ?>
<!DOCTYPE svg PUBLIC "-//W3C//DTD SVG 1.1//EN" "http://www.w3.org/Graphics/SVG/1.1/DTD/svg11.dtd">
<svg width="630pt" height="626pt" viewBox="0 0 630 626" version="1.1" xmlns="http://www.w3.org/2000/svg">
<g id="#a26d03ff">
<path fill="#a26d03" opacity="1.00" d=" M 272.86 52.24 C 274.92 49.72 278.43 49.61 281.27 48.42 C 289.83 48.04 298.44 48.32 307.03 48.26 C 311.78 49.28 316.52 50.68 320.68 53.31 C 323.30 54.03 325.21 55.92 326.63 58.17 C 329.93 63.72 330.79 70.24 331.44 76.55 C 332.21 84.65 333.17 92.79 332.69 100.95 C 332.14 109.45 332.03 118.03 330.40 126.43 C 328.45 136.50 326.64 146.64 323.30 156.37 C 320.47 164.41 318.26 172.71 314.33 180.32 C 312.43 183.87 311.73 188.00 312.95 191.89 C 309.88 186.76 307.12 181.41 303.55 176.60 C 304.07 163.97 301.70 151.32 297.71 139.37 C 295.77 133.58 294.75 127.46 291.98 121.97 C 288.64 115.34 285.75 108.47 282.11 101.99 C 276.97 91.96 269.82 83.08 261.66 75.36 C 258.39 72.43 259.05 67.70 258.83 63.76 C 260.61 60.69 263.49 57.73 266.72 56.13 C 269.21 55.61 271.28 54.21 272.86 52.24 Z" />
</g>
<g id="#827b37f6">
<path fill="#827b37" opacity="0.96" d=" M 266.72 56.13 C 267.55 53.74 270.22 51.51 272.86 52.24 C 271.28 54.21 269.21 55.61 266.72 56.13 Z" />
</g>
<g id="#b87c02ff">
<path fill="#b87c02" opacity="1.00" d=" M 326.63 58.17 C 332.86 57.88 339.15 57.70 345.36 58.23 C 348.95 60.35 352.89 61.99 357.13 61.97 C 358.59 62.07 360.05 62.15 361.52 62.26 C 361.76 62.68 362.23 63.53 362.47 63.96 C 363.13 65.16 363.81 66.36 364.48 67.56 C 365.23 67.64 366.73 67.79 367.48 67.87 C 369.76 67.90 370.99 70.09 372.60 71.37 C 376.91 75.65 382.92 78.59 385.66 84.21 C 386.00 84.61 386.66 85.42 386.99 85.82 C 388.75 86.66 389.84 88.51 390.59 90.25 C 390.93 90.65 391.61 91.44 391.95 91.84 C 395.45 97.05 400.89 102.66 399.85 109.39 C 398.17 114.43 396.96 119.67 394.39 124.37 C 389.68 133.12 384.44 141.61 378.70 149.72 C 367.99 163.84 355.23 176.27 342.00 187.99 C 334.76 194.49 326.13 199.29 319.30 206.23 C 318.14 201.07 315.49 196.47 312.95 191.89 C 311.73 188.00 312.43 183.87 314.33 180.32 C 318.26 172.71 320.47 164.41 323.30 156.37 C 326.64 146.64 328.45 136.50 330.40 126.43 C 332.03 118.03 332.14 109.45 332.69 100.95 C 333.17 92.79 332.21 84.65 331.44 76.55 C 330.79 70.24 329.93 63.72 326.63 58.17 Z" />
</g>
<g id="#918d30f8">
<path fill="#918d30" opacity="0.97" d=" M 345.36 58.23 C 347.57 58.18 350.20 57.25 352.07 58.91 C 353.59 60.33 356.66 59.46 357.13 61.97 C 352.89 61.99 348.95 60.35 345.36 58.23 Z" />
</g>
<g id="#936408ff">
<path fill="#936408" opacity="1.00" d=" M 243.86 82.80 C 248.34 76.01 256.57 72.02 258.83 63.76 C 259.05 67.70 258.39 72.43 261.66 75.36 C 269.82 83.08 276.97 91.96 282.11 101.99 C 285.75 108.47 288.64 115.34 291.98 121.97 C 294.75 127.46 295.77 133.58 297.71 139.37 C 301.70 151.32 304.07 163.97 303.55 176.60 C 298.16 170.91 293.48 164.59 288.09 158.90 C 284.16 154.73 278.90 152.18 274.69 148.34 C 269.97 144.07 264.00 141.67 258.69 138.28 C 253.48 135.00 247.31 134.13 241.41 132.82 C 241.02 128.30 240.10 123.84 238.54 119.58 C 237.84 111.75 238.45 103.83 238.23 95.97 C 237.92 90.94 241.18 86.74 243.86 82.80 Z" />
</g>
<g id="#8e894cf5">
<path fill="#8e894c" opacity="0.96" d=" M 362.47 63.96 C 364.99 63.63 366.21 66.16 367.48 67.87 C 366.73 67.79 365.23 67.64 364.48 67.56 C 363.81 66.36 363.13 65.16 362.47 63.96 Z" />
</g>
<g id="#627953c8">
<path fill="#627953" opacity="0.78" d=" M 385.66 84.21 L 386.57 84.11 L 387.25 84.94 L 386.99 85.82 C 386.66 85.42 386.00 84.61 385.66 84.21 Z" />
</g>
<g id="#5b654baa">
<path fill="#5b654b" opacity="0.67" d=" M 390.59 90.25 L 391.51 90.13 L 392.20 90.95 L 391.95 91.84 C 391.61 91.44 390.93 90.65 390.59 90.25 Z" />
</g>
<g id="#c38609ff">
<path fill="#c38609" opacity="1.00" d=" M 394.39 124.37 C 396.96 119.67 398.17 114.43 399.85 109.39 C 406.18 109.20 411.67 112.24 417.32 114.62 C 419.50 116.37 422.36 117.65 423.62 120.28 C 423.96 121.56 424.78 122.13 426.09 121.99 C 427.25 121.78 428.17 122.16 428.83 123.13 C 433.67 129.50 440.55 134.39 444.03 141.72 C 444.34 143.49 444.60 145.27 444.88 147.05 C 446.07 147.42 447.27 147.78 448.48 148.15 C 448.70 148.22 449.14 148.36 449.36 148.43 C 451.73 154.51 455.79 160.06 456.38 166.74 C 457.88 170.28 458.23 174.08 458.37 177.89 C 458.42 180.75 458.29 183.61 458.16 186.46 C 444.49 186.93 430.57 187.28 417.40 191.36 C 406.53 194.30 395.73 197.59 385.50 202.35 C 373.76 206.64 363.08 213.16 352.21 219.22 C 346.75 222.44 341.75 226.55 335.65 228.56 L 334.86 228.07 C 330.92 220.71 326.11 213.79 319.85 208.21 C 319.71 207.72 319.44 206.73 319.30 206.23 C 326.13 199.29 334.76 194.49 342.00 187.99 C 355.23 176.27 367.99 163.84 378.70 149.72 C 384.44 141.61 389.68 133.12 394.39 124.37 Z" />
</g>
<g id="#86600bff">
<path fill="#86600b" opacity="1.00" d=" M 238.54 119.58 C 240.10 123.84 241.02 128.30 241.41 132.82 C 247.31 134.13 253.48 135.00 258.69 138.28 C 264.00 141.67 269.97 144.07 274.69 148.34 C 278.90 152.18 284.16 154.73 288.09 158.90 C 293.48 164.59 298.16 170.91 303.55 176.60 C 307.12 181.41 309.88 186.76 312.95 191.89 C 315.49 196.47 318.14 201.07 319.30 206.23 C 319.44 206.73 319.71 207.72 319.85 208.21 C 312.29 202.23 303.25 198.25 293.80 196.41 C 286.76 195.71 279.67 195.48 272.61 195.06 C 272.07 197.59 271.51 200.12 270.95 202.65 C 270.32 198.83 269.70 195.02 268.89 191.24 C 267.87 195.74 268.02 200.36 267.73 204.94 C 267.51 208.29 265.55 211.18 263.42 213.65 C 262.31 214.83 261.14 215.94 260.04 217.13 C 260.67 213.39 262.73 209.93 262.33 206.03 C 262.09 201.84 263.24 196.51 259.51 193.51 C 253.67 188.36 248.67 182.36 244.18 176.02 C 240.49 170.53 238.26 164.22 236.47 157.91 C 235.98 152.29 236.32 146.62 236.25 140.98 C 235.88 136.64 240.56 133.64 239.82 129.24 C 238.84 126.11 237.74 122.91 238.54 119.58 Z" />
</g>
<g id="#858b4de8">
<path fill="#858b4d" opacity="0.91" d=" M 423.62 120.28 C 425.39 119.50 426.21 120.07 426.09 121.99 C 424.78 122.13 423.96 121.56 423.62 120.28 Z" />
</g>
<g id="#9d8a3ef3">
<path fill="#9d8a3e" opacity="0.95" d=" M 444.03 141.72 C 446.65 142.61 448.24 145.49 448.48 148.15 C 447.27 147.78 446.07 147.42 444.88 147.05 C 444.60 145.27 444.34 143.49 444.03 141.72 Z" />
</g>
<g id="#b57a02ff">
<path fill="#b57a02" opacity="1.00" d=" M 458.37 177.89 C 459.02 181.09 459.03 184.36 459.38 187.60 C 460.45 187.83 461.53 188.06 462.61 188.29 C 463.78 192.29 468.20 193.28 470.44 196.45 C 473.92 200.64 478.37 204.54 479.95 209.89 C 480.74 214.54 483.09 218.64 485.06 222.85 C 488.85 232.20 489.89 242.44 489.23 252.45 C 488.38 258.15 484.00 262.60 483.39 268.38 C 459.26 253.19 431.20 245.37 403.10 241.86 C 386.01 240.09 368.69 239.29 351.65 241.98 C 346.54 237.27 341.60 232.24 335.65 228.56 C 341.75 226.55 346.75 222.44 352.21 219.22 C 363.08 213.16 373.76 206.64 385.50 202.35 C 395.73 197.59 406.53 194.30 417.40 191.36 C 430.57 187.28 444.49 186.93 458.16 186.46 C 458.29 183.61 458.42 180.75 458.37 177.89 Z" />
</g>
<g id="#815c0cff">
<path fill="#815c0c" opacity="1.00" d=" M 267.73 204.94 C 268.02 200.36 267.87 195.74 268.89 191.24 C 269.70 195.02 270.32 198.83 270.95 202.65 C 271.51 200.12 272.07 197.59 272.61 195.06 C 279.67 195.48 286.76 195.71 293.80 196.41 C 303.25 198.25 312.29 202.23 319.85 208.21 C 326.11 213.79 330.92 220.71 334.86 228.07 C 335.03 234.98 338.61 241.47 337.56 248.44 C 336.55 256.01 336.00 263.82 332.81 270.87 C 330.92 275.09 328.84 279.23 327.22 283.57 C 322.83 281.50 317.72 281.03 313.65 278.18 C 310.19 276.04 306.47 274.23 303.54 271.36 C 298.38 266.32 293.18 261.31 288.57 255.76 C 285.33 252.17 282.11 248.52 279.61 244.36 C 276.15 238.57 271.80 233.31 268.96 227.16 C 266.89 222.75 265.20 218.18 263.42 213.65 C 265.55 211.18 267.51 208.29 267.73 204.94 Z" />
</g>
<g id="#5e591fa3">
<path fill="#5e591f" opacity="0.64" d=" M 479.95 209.89 C 483.65 216.36 487.45 223.02 488.74 230.46 C 490.65 236.13 489.87 242.14 490.02 248.00 C 489.89 249.48 490.10 251.15 489.23 252.45 C 489.89 242.44 488.85 232.20 485.06 222.85 C 483.09 218.64 480.74 214.54 479.95 209.89 Z" />
</g>
<g id="#a46202ff">
<path fill="#a46202" opacity="1.00" d=" M 260.04 217.13 C 261.14 215.94 262.31 214.83 263.42 213.65 C 265.20 218.18 266.89 222.75 268.96 227.16 C 271.80 233.31 276.15 238.57 279.61 244.36 C 282.11 248.52 285.33 252.17 288.57 255.76 C 288.14 256.95 287.72 258.15 287.30 259.35 C 282.81 261.99 278.22 264.45 273.40 266.44 C 264.69 270.05 256.99 275.60 248.47 279.59 C 244.03 281.65 239.99 284.44 236.25 287.58 C 237.59 288.01 238.93 288.45 240.28 288.89 C 238.78 289.40 237.29 289.92 235.80 290.44 C 235.61 291.52 235.42 292.61 235.23 293.70 C 231.87 292.59 228.48 291.57 225.09 290.59 C 225.04 291.97 225.08 293.36 224.80 294.73 C 222.31 296.22 219.20 296.84 217.27 299.17 C 215.54 301.14 213.79 303.21 211.29 304.21 C 207.58 305.82 204.32 308.22 201.43 311.02 C 201.83 312.55 202.22 314.08 202.62 315.62 C 200.14 315.03 197.65 314.45 195.16 313.89 C 195.11 314.64 195.02 316.14 194.98 316.89 C 196.33 317.81 197.68 318.75 199.07 319.63 C 197.62 322.07 195.89 324.34 192.85 324.62 C 189.93 329.90 184.62 333.23 180.94 337.93 C 177.47 342.50 174.55 347.45 171.29 352.17 C 169.27 352.14 167.25 352.13 165.23 352.12 C 163.45 354.39 161.32 356.55 160.43 359.35 C 159.75 361.99 159.78 364.73 159.65 367.43 C 158.74 367.23 157.84 367.03 156.95 366.83 C 156.13 374.20 155.53 381.58 154.94 388.97 C 154.08 398.44 157.13 407.72 156.50 417.19 C 159.57 416.80 162.75 416.98 165.55 418.43 C 166.48 419.08 167.40 419.76 168.31 420.46 C 165.10 421.58 159.56 422.36 160.12 426.90 C 160.49 431.71 166.02 432.68 169.91 432.68 C 170.35 437.82 170.30 442.99 170.20 448.15 C 156.46 442.85 147.27 429.44 143.41 415.63 C 141.66 411.13 142.79 406.18 141.43 401.60 C 139.40 395.25 140.36 388.46 140.38 381.91 C 141.52 374.71 143.32 367.62 144.62 360.43 C 146.64 353.09 150.20 346.31 153.68 339.58 C 155.99 334.79 159.66 330.87 162.46 326.39 C 165.89 321.37 169.13 316.02 174.00 312.24 C 182.23 306.15 189.66 299.09 197.06 292.06 C 201.69 287.66 207.07 284.13 211.57 279.57 C 215.87 275.17 221.15 271.78 224.89 266.83 C 229.55 260.88 235.62 256.24 240.25 250.26 C 244.00 245.36 248.43 240.93 251.38 235.46 C 253.80 231.05 256.64 226.79 258.04 221.91 C 258.56 220.26 259.13 218.61 260.04 217.13 Z" />
</g>
<g id="#59441a97">
<path fill="#59441a" opacity="0.59" d=" M 247.76 238.83 C 251.36 233.30 254.00 227.18 258.04 221.91 C 256.64 226.79 253.80 231.05 251.38 235.46 C 248.43 240.93 244.00 245.36 240.25 250.26 C 235.62 256.24 229.55 260.88 224.89 266.83 C 221.15 271.78 215.87 275.17 211.57 279.57 C 207.07 284.13 201.69 287.66 197.06 292.06 C 189.66 299.09 182.23 306.15 174.00 312.24 C 176.94 306.60 182.79 303.57 187.03 299.08 C 195.24 290.88 204.92 284.33 213.00 276.00 C 216.24 272.87 220.13 270.42 222.96 266.86 C 225.73 263.34 228.91 260.20 232.11 257.08 C 237.81 251.42 242.39 244.78 247.76 238.83 Z" />
</g>
<g id="#89630eff">
<path fill="#89630e" opacity="1.00" d=" M 334.86 228.07 L 335.65 228.56 C 341.60 232.24 346.54 237.27 351.65 241.98 C 352.72 243.35 353.70 244.79 354.70 246.22 C 358.66 254.05 365.77 259.73 369.43 267.74 C 371.71 272.39 374.26 276.92 376.43 281.63 C 379.47 288.02 379.82 295.24 382.24 301.85 C 384.39 307.54 384.26 313.71 383.74 319.68 C 380.05 319.94 376.37 320.36 372.79 321.27 C 376.53 321.66 380.28 321.91 384.04 322.08 C 383.93 322.73 383.72 324.01 383.62 324.66 C 382.73 324.97 381.84 325.28 380.95 325.58 C 376.41 326.45 371.67 325.99 367.06 325.90 C 362.12 324.06 357.77 320.55 352.47 319.70 C 349.92 314.98 344.87 312.52 341.69 308.31 C 334.90 301.40 331.13 292.27 327.22 283.57 C 328.84 279.23 330.92 275.09 332.81 270.87 C 336.00 263.82 336.55 256.01 337.56 248.44 C 338.61 241.47 335.03 234.98 334.86 228.07 Z" />
</g>
<g id="#a56f03ff">
<path fill="#a56f03" opacity="1.00" d=" M 351.65 241.98 C 368.69 239.29 386.01 240.09 403.10 241.86 C 431.20 245.37 459.26 253.19 483.39 268.38 C 486.51 272.59 485.65 278.10 485.76 283.01 C 485.59 288.26 486.35 293.66 484.77 298.77 C 483.01 308.58 475.53 316.14 467.70 321.70 C 463.03 326.01 456.81 327.65 451.12 330.10 C 448.02 329.94 444.96 329.43 441.92 328.84 C 444.84 328.51 447.95 328.01 449.73 325.40 C 447.46 323.61 445.32 321.60 443.94 319.04 C 440.98 313.81 437.27 309.08 433.72 304.26 C 417.41 284.86 396.82 269.31 374.30 257.80 C 370.38 255.97 366.00 255.11 362.43 252.57 C 359.72 250.63 357.17 248.46 354.70 246.22 C 353.70 244.79 352.72 243.35 351.65 241.98 Z" />
</g>
<g id="#986708ff">
<path fill="#986708" opacity="1.00" d=" M 354.70 246.22 C 357.17 248.46 359.72 250.63 362.43 252.57 C 366.00 255.11 370.38 255.97 374.30 257.80 C 396.82 269.31 417.41 284.86 433.72 304.26 C 437.27 309.08 440.98 313.81 443.94 319.04 C 445.32 321.60 447.46 323.61 449.73 325.40 C 447.95 328.01 444.84 328.51 441.92 328.84 C 444.96 329.43 448.02 329.94 451.12 330.10 C 447.11 333.17 443.13 336.50 438.27 338.10 C 434.54 339.35 431.14 341.97 427.05 341.75 C 421.54 341.63 415.85 342.43 410.57 340.48 C 404.68 339.31 399.54 336.10 393.96 334.04 C 389.08 332.08 385.84 327.42 380.95 325.58 C 381.84 325.28 382.73 324.97 383.62 324.66 C 383.72 324.01 383.93 322.73 384.04 322.08 C 380.28 321.91 376.53 321.66 372.79 321.27 C 376.37 320.36 380.05 319.94 383.74 319.68 C 384.26 313.71 384.39 307.54 382.24 301.85 C 379.82 295.24 379.47 288.02 376.43 281.63 C 374.26 276.92 371.71 272.39 369.43 267.74 C 365.77 259.73 358.66 254.05 354.70 246.22 Z" />
</g>
<g id="#975c08ff">
<path fill="#975c08" opacity="1.00" d=" M 288.57 255.76 C 293.18 261.31 298.38 266.32 303.54 271.36 C 306.47 274.23 310.19 276.04 313.65 278.18 C 309.74 277.94 305.82 277.97 301.91 278.00 C 298.40 277.70 295.65 280.82 292.05 280.02 C 284.95 279.20 278.85 284.19 271.87 284.05 C 269.96 284.13 268.11 284.71 266.58 285.85 C 263.37 288.57 258.90 288.52 255.14 290.09 C 244.92 294.68 234.33 298.57 224.05 303.03 C 216.13 308.55 208.09 313.89 200.54 319.92 C 200.17 319.85 199.44 319.70 199.07 319.63 C 197.68 318.75 196.33 317.81 194.98 316.89 C 195.02 316.14 195.11 314.64 195.16 313.89 C 197.65 314.45 200.14 315.03 202.62 315.62 C 202.22 314.08 201.83 312.55 201.43 311.02 C 204.32 308.22 207.58 305.82 211.29 304.21 C 213.79 303.21 215.54 301.14 217.27 299.17 C 219.20 296.84 222.31 296.22 224.80 294.73 C 225.08 293.36 225.04 291.97 225.09 290.59 C 228.48 291.57 231.87 292.59 235.23 293.70 C 235.42 292.61 235.61 291.52 235.80 290.44 C 237.29 289.92 238.78 289.40 240.28 288.89 C 238.93 288.45 237.59 288.01 236.25 287.58 C 239.99 284.44 244.03 281.65 248.47 279.59 C 256.99 275.60 264.69 270.05 273.40 266.44 C 278.22 264.45 282.81 261.99 287.30 259.35 C 287.72 258.15 288.14 256.95 288.57 255.76 Z" />
</g>
<g id="#807440f6">
<path fill="#807440" opacity="0.96" d=" M 266.58 285.85 C 268.11 284.71 269.96 284.13 271.87 284.05 C 271.90 284.56 271.97 285.57 272.00 286.07 C 270.19 286.01 268.38 285.95 266.58 285.85 Z" />
</g>
<g id="#975b08ff">
<path fill="#975b08" opacity="1.00" d=" M 160.43 359.35 C 161.32 356.55 163.45 354.39 165.23 352.12 C 167.25 352.13 169.27 352.14 171.29 352.17 C 168.75 357.50 167.00 363.15 164.46 368.48 C 163.90 372.09 163.44 375.73 162.18 379.20 C 160.94 387.74 161.55 396.44 161.86 405.04 C 162.46 409.64 163.97 414.08 165.55 418.43 C 162.75 416.98 159.57 416.80 156.50 417.19 C 157.13 407.72 154.08 398.44 154.94 388.97 C 155.53 381.58 156.13 374.20 156.95 366.83 C 157.84 367.03 158.74 367.23 159.65 367.43 C 159.78 364.73 159.75 361.99 160.43 359.35 Z" />
</g>
<g id="#523806ff">
<path fill="#523806" opacity="1.00" d=" M 274.48 364.18 C 274.71 364.14 275.17 364.06 275.40 364.02 C 275.72 365.79 275.81 367.66 276.55 369.34 C 278.02 370.75 279.98 371.48 281.84 372.27 C 282.19 379.50 281.77 386.74 281.87 393.98 C 281.89 394.50 281.91 395.55 281.92 396.08 C 281.33 396.12 280.15 396.20 279.56 396.24 C 279.61 396.70 279.70 397.61 279.74 398.06 C 278.12 398.06 276.49 398.05 274.88 398.08 C 274.33 386.78 276.23 375.43 274.48 364.18 Z" />
</g>
<g id="#705509ff">
<path fill="#705509" opacity="1.00" d=" M 275.40 364.02 C 278.90 363.24 281.63 365.83 284.98 366.00 C 287.75 366.10 290.12 367.89 292.91 367.87 C 294.98 368.05 297.20 367.84 299.08 368.94 C 301.87 370.63 305.33 369.43 308.22 370.76 C 310.92 372.06 314.03 371.95 316.73 373.25 C 320.03 374.73 323.92 373.12 327.13 374.89 C 330.33 376.79 334.52 374.96 337.37 377.73 C 342.09 377.41 346.10 379.94 350.71 380.30 C 353.80 382.15 357.40 381.79 360.79 382.48 C 364.75 384.27 369.27 383.76 373.21 385.67 C 379.18 385.98 384.58 388.96 390.67 388.52 C 393.25 393.25 391.56 398.93 392.04 404.08 C 391.97 405.99 391.83 407.91 391.60 409.81 C 391.18 409.85 390.33 409.93 389.91 409.97 C 389.84 407.89 389.81 405.81 389.77 403.73 C 389.65 400.56 389.50 397.39 389.41 394.23 C 380.98 394.75 373.37 390.45 365.10 389.71 C 358.28 388.22 351.46 386.72 344.62 385.33 C 339.48 384.02 334.40 382.44 329.15 381.68 C 322.87 380.23 316.70 378.18 310.25 377.62 C 304.66 375.70 298.59 376.17 293.13 373.75 C 291.59 372.81 289.84 372.31 288.04 372.42 C 285.98 372.18 283.90 372.14 281.84 372.27 C 279.98 371.48 278.02 370.75 276.55 369.34 C 275.81 367.66 275.72 365.79 275.40 364.02 Z" />
</g>
<g id="#7b8955ef">
<path fill="#7b8955" opacity="0.94" d=" M 288.04 372.42 C 289.84 372.31 291.59 372.81 293.13 373.75 C 291.33 374.40 288.98 374.40 288.04 372.42 Z" />
</g>
<g id="#6a625fff">
<path fill="#6a625f" opacity="1.00" d=" M 294.11 394.21 C 294.15 392.59 295.92 391.75 297.35 391.99 C 297.57 393.72 295.55 394.59 294.11 394.21 Z" />
<path fill="#6a625f" opacity="1.00" d=" M 392.04 404.08 C 400.96 406.17 410.28 407.85 418.10 412.89 C 420.53 414.44 423.61 413.90 426.27 414.83 L 425.26 414.98 C 423.97 415.10 422.68 415.24 421.40 415.38 C 421.15 417.56 420.91 419.75 420.66 421.94 C 413.43 421.94 406.23 420.98 399.00 420.97 C 388.32 420.95 377.68 419.83 367.00 420.03 C 358.55 420.25 350.15 419.12 341.71 419.26 C 339.88 417.37 338.00 415.54 336.25 413.59 L 335.63 412.81 C 352.74 409.86 370.04 408.13 387.29 406.25 C 388.13 407.50 388.98 408.76 389.91 409.97 C 390.33 409.93 391.18 409.85 391.60 409.81 C 391.83 407.91 391.97 405.99 392.04 404.08 Z" />
<path fill="#6a625f" opacity="1.00" d=" M 194.45 416.02 C 194.19 414.15 197.84 413.08 199.05 414.44 C 197.64 415.24 196.16 416.22 194.45 416.02 Z" />
<path fill="#6a625f" opacity="1.00" d=" M 203.78 413.48 C 211.92 413.76 220.07 413.52 228.21 413.64 C 246.06 414.13 263.92 415.09 281.78 414.94 C 281.24 415.96 280.66 416.98 280.24 418.07 C 280.98 419.60 282.06 420.93 283.04 422.33 C 264.02 425.07 244.89 426.97 225.87 429.74 C 222.27 430.14 218.47 430.36 215.06 428.91 C 209.79 426.76 205.60 422.78 200.78 419.86 C 201.68 417.69 202.74 415.59 203.78 413.48 Z" />
</g>
<g id="#8c1b00ff">
<path fill="#8c1b00" opacity="1.00" d=" M 297.35 391.99 C 301.92 391.85 306.50 391.75 311.07 391.90 C 312.10 393.62 314.15 394.12 316.03 393.97 C 317.82 394.01 319.61 394.10 321.41 394.16 L 321.15 394.75 C 314.96 397.08 308.30 395.66 301.89 396.08 C 297.47 396.18 293.14 397.12 288.79 397.82 C 285.78 397.96 282.76 398.05 279.74 398.06 C 279.70 397.61 279.61 396.70 279.56 396.24 C 280.15 396.20 281.33 396.12 281.92 396.08 C 284.27 395.94 286.49 395.14 288.62 394.20 C 290.45 394.11 292.28 394.10 294.11 394.21 C 295.55 394.59 297.57 393.72 297.35 391.99 Z" />
</g>
<g id="#6f4848c9">
<path fill="#6f4848" opacity="0.79" d=" M 311.07 391.90 C 312.96 391.66 315.19 391.98 316.03 393.97 C 314.15 394.12 312.10 393.62 311.07 391.90 Z" />
</g>
<g id="#3c453195">
<path fill="#3c4531" opacity="0.58" d=" M 281.87 393.98 C 284.12 394.04 286.37 394.16 288.62 394.20 C 286.49 395.14 284.27 395.94 281.92 396.08 C 281.91 395.55 281.89 394.50 281.87 393.98 Z" />
</g>
<g id="#7d534cc5">
<path fill="#7d534c" opacity="0.77" d=" M 321.41 394.16 C 323.21 393.51 325.42 393.82 326.23 395.77 C 324.48 395.75 322.76 395.41 321.15 394.75 L 321.41 394.16 Z" />
</g>
<g id="#63200eff">
<path fill="#63200e" opacity="1.00" d=" M 321.15 394.75 C 322.76 395.41 324.48 395.75 326.23 395.77 C 327.50 395.85 328.78 395.93 330.06 396.02 C 331.10 396.66 332.20 397.20 333.35 397.64 C 318.51 398.35 303.64 397.80 288.79 397.82 C 293.14 397.12 297.47 396.18 301.89 396.08 C 308.30 395.66 314.96 397.08 321.15 394.75 Z" />
</g>
<g id="#795659d7">
<path fill="#795659" opacity="0.84" d=" M 330.06 396.02 C 332.09 395.68 334.48 395.57 335.88 397.40 C 335.25 397.46 333.98 397.58 333.35 397.64 C 332.20 397.20 331.10 396.66 330.06 396.02 Z" />
</g>
<g id="#241a18ff">
<path fill="#241a18" opacity="1.00" d=" M 333.35 397.64 C 333.98 397.58 335.25 397.46 335.88 397.40 C 353.85 399.38 372.07 399.73 389.77 403.73 C 389.81 405.81 389.84 407.89 389.91 409.97 C 388.98 408.76 388.13 407.50 387.29 406.25 C 370.04 408.13 352.74 409.86 335.63 412.81 C 329.72 413.26 323.89 411.73 317.98 411.85 C 307.87 411.75 297.55 411.20 287.67 413.77 C 285.72 414.23 283.77 414.68 281.78 414.94 C 263.92 415.09 246.06 414.13 228.21 413.64 C 220.34 412.93 212.40 413.84 204.55 412.82 C 210.95 408.51 218.64 406.89 226.00 404.97 C 237.85 402.50 249.84 400.50 261.93 399.68 C 266.26 399.26 270.52 398.27 274.88 398.08 C 276.49 398.05 278.12 398.06 279.74 398.06 C 282.76 398.05 285.78 397.96 288.79 397.82 C 303.64 397.80 318.51 398.35 333.35 397.64 Z" />
</g>
<g id="#2e2d2b35">
<path fill="#2e2d2b" opacity="0.21" d=" M 287.67 413.77 C 297.55 411.20 307.87 411.75 317.98 411.85 C 323.89 411.73 329.72 413.26 335.63 412.81 L 336.25 413.59 C 336.16 415.68 335.98 417.78 335.82 419.88 C 330.64 419.97 325.48 420.05 320.31 420.09 C 320.31 422.22 320.32 424.36 320.33 426.51 C 314.94 427.15 309.49 427.09 304.07 426.81 C 303.92 424.58 303.76 422.36 303.61 420.14 C 298.52 420.04 293.43 419.95 288.34 419.86 C 288.11 417.83 287.89 415.79 287.67 413.77 Z" />
</g>
<g id="#7b1902ff">
<path fill="#7b1902" opacity="1.00" d=" M 199.05 414.44 C 200.54 413.80 202.20 413.77 203.78 413.48 C 202.74 415.59 201.68 417.69 200.78 419.86 C 200.36 423.21 200.96 427.02 204.13 428.87 C 213.86 435.37 225.59 437.75 236.81 440.41 C 250.09 442.86 263.52 444.40 276.95 445.79 C 291.27 446.68 305.64 446.34 319.98 446.41 C 331.80 446.25 343.70 446.48 355.44 444.74 C 375.05 442.82 394.92 440.01 413.17 432.18 C 416.11 430.72 419.51 429.28 421.19 426.29 C 422.16 423.05 422.07 419.62 422.30 416.28 C 423.56 416.05 424.84 415.85 426.12 415.67 C 428.02 415.80 429.96 415.88 431.81 416.40 C 432.94 417.45 434.35 418.29 435.97 418.06 C 437.40 418.03 438.81 418.18 440.20 418.51 C 442.00 419.11 443.83 419.70 445.75 419.80 C 450.79 420.10 455.57 421.86 460.51 422.73 C 464.16 424.16 464.09 428.43 463.23 431.64 C 460.13 431.66 457.03 431.79 453.96 432.19 C 453.34 466.85 454.01 501.54 453.63 536.20 C 452.06 530.25 453.14 524.06 452.94 518.00 C 452.80 490.91 453.15 463.80 452.79 436.71 C 452.80 436.06 452.83 434.75 452.84 434.09 C 446.46 435.17 440.04 435.97 433.58 436.33 C 429.40 440.89 422.43 440.19 416.78 440.32 C 416.92 440.73 417.07 441.15 417.22 441.58 C 414.63 442.22 412.06 442.99 409.41 443.39 C 406.30 443.81 403.29 442.51 400.19 442.48 C 398.09 442.68 396.13 443.55 394.15 444.22 C 388.11 446.57 381.52 446.64 375.36 448.57 C 366.75 451.24 357.84 452.74 349.15 455.10 C 340.86 456.58 332.88 459.36 324.62 461.00 C 319.11 462.10 313.78 465.04 308.03 464.17 C 291.66 460.37 275.49 455.75 259.11 451.96 C 250.71 450.15 242.70 446.68 234.08 445.85 C 228.82 445.55 224.41 441.59 219.06 442.10 C 215.27 442.32 211.46 442.26 207.72 441.62 C 208.78 440.52 209.86 439.44 210.94 438.37 C 205.44 439.25 199.70 439.39 194.41 437.42 C 191.30 436.20 187.98 435.70 184.65 435.80 C 184.84 435.30 185.03 434.81 185.22 434.32 C 180.01 435.00 175.07 432.83 169.91 432.68 C 166.02 432.68 160.49 431.71 160.12 426.90 C 159.56 422.36 165.10 421.58 168.31 420.46 C 175.11 420.34 181.73 418.51 188.07 416.18 C 190.18 415.83 192.33 416.04 194.45 416.02 C 196.16 416.22 197.64 415.24 199.05 414.44 M 287.80 447.58 C 303.91 448.46 320.10 448.29 336.21 447.54 C 322.15 446.74 308.03 447.53 293.95 447.17 C 291.89 447.10 289.83 447.29 287.80 447.58 Z" />
</g>
<g id="#38363540">
<path fill="#383635" opacity="0.25" d=" M 281.78 414.94 C 283.77 414.68 285.72 414.23 287.67 413.77 C 287.89 415.79 288.11 417.83 288.34 419.86 C 293.43 419.95 298.52 420.04 303.61 420.14 C 303.76 422.36 303.92 424.58 304.07 426.81 C 296.88 426.30 289.90 424.46 283.04 422.33 C 282.06 420.93 280.98 419.60 280.24 418.07 C 280.66 416.98 281.24 415.96 281.78 414.94 Z" />
<path fill="#383635" opacity="0.25" d=" M 336.25 413.59 C 338.00 415.54 339.88 417.37 341.71 419.26 C 335.96 424.65 327.75 425.38 320.33 426.51 C 320.32 424.36 320.31 422.22 320.31 420.09 C 325.48 420.05 330.64 419.97 335.82 419.88 C 335.98 417.78 336.16 415.68 336.25 413.59 Z" />
</g>
<g id="#231a18ff">
<path fill="#231a18" opacity="1.00" d=" M 421.40 415.38 C 422.68 415.24 423.97 415.10 425.26 414.98 L 426.12 415.67 C 424.84 415.85 423.56 416.05 422.30 416.28 C 422.07 419.62 422.16 423.05 421.19 426.29 C 419.51 429.28 416.11 430.72 413.17 432.18 C 394.92 440.01 375.05 442.82 355.44 444.74 C 343.70 446.48 331.80 446.25 319.98 446.41 C 305.64 446.34 291.27 446.68 276.95 445.79 C 263.52 444.40 250.09 442.86 236.81 440.41 C 225.59 437.75 213.86 435.37 204.13 428.87 C 200.96 427.02 200.36 423.21 200.78 419.86 C 205.60 422.78 209.79 426.76 215.06 428.91 C 218.47 430.36 222.27 430.14 225.87 429.74 C 244.89 426.97 264.02 425.07 283.04 422.33 C 289.90 424.46 296.88 426.30 304.07 426.81 C 309.49 427.09 314.94 427.15 320.33 426.51 C 327.75 425.38 335.96 424.65 341.71 419.26 C 350.15 419.12 358.55 420.25 367.00 420.03 C 377.68 419.83 388.32 420.95 399.00 420.97 C 406.23 420.98 413.43 421.94 420.66 421.94 C 420.91 419.75 421.15 417.56 421.40 415.38 Z" />
</g>
<g id="#533c3db1">
<path fill="#533c3d" opacity="0.69" d=" M 431.81 416.40 C 432.93 414.76 437.02 415.91 435.97 418.06 C 434.35 418.29 432.94 417.45 431.81 416.40 Z" />
</g>
<g id="#543733ad">
<path fill="#543733" opacity="0.68" d=" M 440.20 418.51 C 441.56 417.12 446.00 417.49 445.75 419.80 C 443.83 419.70 442.00 419.11 440.20 418.51 Z" />
</g>
<g id="#501205ff">
<path fill="#501205" opacity="1.00" d=" M 169.91 432.68 C 175.07 432.83 180.01 435.00 185.22 434.32 C 185.03 434.81 184.84 435.30 184.65 435.80 C 187.98 435.70 191.30 436.20 194.41 437.42 C 199.70 439.39 205.44 439.25 210.94 438.37 C 209.86 439.44 208.78 440.52 207.72 441.62 C 211.46 442.26 215.27 442.32 219.06 442.10 C 224.41 441.59 228.82 445.55 234.08 445.85 C 242.70 446.68 250.71 450.15 259.11 451.96 C 275.49 455.75 291.66 460.37 308.03 464.17 C 313.78 465.04 319.11 462.10 324.62 461.00 C 332.88 459.36 340.86 456.58 349.15 455.10 C 357.84 452.74 366.75 451.24 375.36 448.57 C 381.52 446.64 388.11 446.57 394.15 444.22 C 396.13 443.55 398.09 442.68 400.19 442.48 C 403.29 442.51 406.30 443.81 409.41 443.39 C 412.06 442.99 414.63 442.22 417.22 441.58 C 417.07 441.15 416.92 440.73 416.78 440.32 C 422.43 440.19 429.40 440.89 433.58 436.33 C 440.04 435.97 446.46 435.17 452.84 434.09 C 452.83 434.75 452.80 436.06 452.79 436.71 C 452.46 437.58 452.11 438.46 451.76 439.33 C 450.14 438.77 448.45 437.99 446.70 438.42 C 441.34 439.52 436.17 441.39 430.89 442.77 C 423.21 444.99 415.21 445.97 407.65 448.62 C 399.46 451.55 390.78 452.69 382.47 455.22 C 372.61 457.28 363.04 460.39 353.34 463.02 C 343.55 464.90 334.13 468.24 324.39 470.29 C 320.13 471.36 315.70 471.90 311.67 473.73 C 310.02 478.63 311.03 483.92 310.88 489.00 C 310.89 516.69 310.93 544.38 310.85 572.07 C 310.89 574.71 311.09 577.35 311.30 579.99 C 302.39 577.97 293.42 576.02 284.72 573.23 C 276.24 569.45 266.83 568.93 258.15 565.81 C 247.48 562.96 236.82 560.08 226.42 556.32 C 220.78 554.07 214.61 553.91 208.86 552.06 C 196.52 548.03 183.53 546.24 171.44 541.39 C 171.35 539.46 171.25 537.53 171.19 535.61 C 170.56 509.73 171.07 483.85 170.86 457.97 C 170.78 455.19 170.49 452.44 170.26 449.68 C 170.24 449.30 170.21 448.53 170.20 448.15 C 170.30 442.99 170.35 437.82 169.91 432.68 Z" />
</g>
<g id="#6d1603ff">
<path fill="#6d1603" opacity="1.00" d=" M 446.70 438.42 C 448.45 437.99 450.14 438.77 451.76 439.33 C 452.11 438.46 452.46 437.58 452.79 436.71 C 453.15 463.80 452.80 490.91 452.94 518.00 C 453.14 524.06 452.06 530.25 453.63 536.20 C 457.89 536.10 463.43 535.81 465.52 540.47 C 466.47 544.21 462.15 546.04 459.31 547.04 C 452.98 548.65 447.01 551.49 440.53 552.50 C 428.35 555.91 416.25 559.59 404.00 562.77 C 400.04 563.75 396.25 565.71 392.10 565.74 C 381.60 565.30 370.96 566.80 361.25 570.92 C 352.05 572.77 343.45 576.67 334.21 578.34 C 328.03 580.04 321.90 581.96 315.54 582.85 C 316.96 583.54 318.39 584.25 319.83 584.94 C 315.95 584.56 312.06 584.76 308.19 585.04 C 305.04 585.44 302.42 583.35 299.63 582.31 C 296.42 580.91 292.84 581.75 289.49 581.17 C 287.39 580.14 285.92 578.07 283.62 577.38 C 274.48 574.18 264.37 574.06 255.87 569.04 C 256.62 567.95 257.38 566.88 258.15 565.81 C 266.83 568.93 276.24 569.45 284.72 573.23 C 293.42 576.02 302.39 577.97 311.30 579.99 C 311.09 577.35 310.89 574.71 310.85 572.07 C 310.93 544.38 310.89 516.69 310.88 489.00 C 311.03 483.92 310.02 478.63 311.67 473.73 C 315.70 471.90 320.13 471.36 324.39 470.29 C 334.13 468.24 343.55 464.90 353.34 463.02 C 363.04 460.39 372.61 457.28 382.47 455.22 C 390.78 452.69 399.46 451.55 407.65 448.62 C 415.21 445.97 423.21 444.99 430.89 442.77 C 436.17 441.39 441.34 439.52 446.70 438.42 M 361.05 485.12 C 358.80 485.83 359.38 488.80 358.68 490.62 C 357.64 498.61 351.92 505.27 344.99 509.02 C 343.42 510.25 340.72 510.90 340.48 513.20 C 340.07 517.83 340.34 522.50 340.06 527.15 C 344.28 527.21 348.55 527.41 352.66 528.41 C 356.87 530.78 359.31 535.32 360.62 539.83 C 364.61 540.23 368.62 539.68 372.41 538.40 C 381.99 535.25 392.08 533.96 401.56 530.49 C 406.05 528.71 410.83 527.96 415.63 527.65 C 415.96 524.03 416.05 520.21 417.93 516.99 C 420.96 511.22 426.08 506.97 431.41 503.40 C 433.20 501.92 435.86 500.59 435.89 497.95 C 436.23 494.12 435.71 490.28 435.26 486.48 C 430.90 486.12 425.69 487.17 422.38 483.60 C 418.14 480.44 417.15 475.08 415.94 470.27 C 397.72 475.53 379.32 480.13 361.05 485.12 Z" />
</g>
<g id="#64211cff">
<path fill="#64211c" opacity="1.00" d=" M 287.80 447.58 C 289.83 447.29 291.89 447.10 293.95 447.17 C 308.03 447.53 322.15 446.74 336.21 447.54 C 320.10 448.29 303.91 448.46 287.80 447.58 Z" />
</g>
<g id="#412626af">
<path fill="#412626" opacity="0.69" d=" M 170.26 449.68 C 170.49 452.44 170.78 455.19 170.86 457.97 C 171.07 483.85 170.56 509.73 171.19 535.61 L 170.20 535.76 C 169.83 510.84 170.18 485.92 169.98 461.00 C 169.94 457.22 170.00 453.44 170.26 449.68 Z" />
</g>
<g id="#7e1903ff">
<path fill="#7e1903" opacity="1.00" d=" M 361.05 485.12 C 379.32 480.13 397.72 475.53 415.94 470.27 C 417.15 475.08 418.14 480.44 422.38 483.60 C 425.69 487.17 430.90 486.12 435.26 486.48 C 435.71 490.28 436.23 494.12 435.89 497.95 C 435.86 500.59 433.20 501.92 431.41 503.40 C 426.08 506.97 420.96 511.22 417.93 516.99 C 416.05 520.21 415.96 524.03 415.63 527.65 C 410.83 527.96 406.05 528.71 401.56 530.49 C 392.08 533.96 381.99 535.25 372.41 538.40 C 368.62 539.68 364.61 540.23 360.62 539.83 C 359.31 535.32 356.87 530.78 352.66 528.41 C 348.55 527.41 344.28 527.21 340.06 527.15 C 340.34 522.50 340.07 517.83 340.48 513.20 C 340.72 510.90 343.42 510.25 344.99 509.02 C 351.92 505.27 357.64 498.61 358.68 490.62 C 359.38 488.80 358.80 485.83 361.05 485.12 Z" />
</g>
<g id="#5d1606ff">
<path fill="#5d1606" opacity="1.00" d=" M 160.50 542.63 C 159.39 537.47 166.46 536.21 170.20 535.76 L 171.19 535.61 C 171.25 537.53 171.35 539.46 171.44 541.39 C 183.53 546.24 196.52 548.03 208.86 552.06 C 214.61 553.91 220.78 554.07 226.42 556.32 C 236.82 560.08 247.48 562.96 258.15 565.81 C 257.38 566.88 256.62 567.95 255.87 569.04 C 264.37 574.06 274.48 574.18 283.62 577.38 C 285.92 578.07 287.39 580.14 289.49 581.17 C 292.84 581.75 296.42 580.91 299.63 582.31 C 302.42 583.35 305.04 585.44 308.19 585.04 C 312.06 584.76 315.95 584.56 319.83 584.94 C 318.39 584.25 316.96 583.54 315.54 582.85 C 321.90 581.96 328.03 580.04 334.21 578.34 C 343.45 576.67 352.05 572.77 361.25 570.92 C 370.96 566.80 381.60 565.30 392.10 565.74 C 389.91 566.77 387.64 567.63 385.30 568.23 C 374.61 570.98 364.15 574.57 353.43 577.21 C 347.64 578.51 342.10 580.67 336.35 582.10 C 334.14 582.60 331.96 583.19 329.81 583.90 C 324.22 585.83 318.45 587.16 312.85 589.06 C 308.46 590.79 304.16 587.88 299.96 586.86 C 286.59 583.09 273.30 579.07 260.08 574.83 C 251.09 572.91 242.58 569.36 233.67 567.12 C 219.46 562.35 204.83 559.00 190.60 554.28 C 184.03 552.00 177.19 550.62 170.61 548.39 C 166.75 547.78 162.34 546.34 160.50 542.63 Z" />
</g>
<g id="#3c242799">
<path fill="#3c2427" opacity="0.60" d=" M 329.81 583.90 C 331.96 583.19 334.14 582.60 336.35 582.10 C 335.36 584.81 332.00 583.68 329.81 583.90 Z" />
</g>
</svg>
